<svg width="101" height="20" viewBox="0 0 101 20" fill="none" xmlns="http://www.w3.org/2000/svg">
<g clip-path="url(#clip0_10_62)">
<path d="M39.0993 3.65285H31.2742L27.7245 7.20207H38.7365V9.43005H31.5333H31.3002L27.6986 13.057V16.2953L31.2742 19.8705H38.7365H39.0734L42.6491 16.2953V7.20207L39.0993 3.65285ZM38.7624 16.2694H31.5593V13.0311H38.7624V16.2694Z" fill="#11273D"/>
<path d="M56.0967 3.62694L59.6983 0.0259075H48.4531L44.9292 3.57513V16.2953L48.764 19.8705V9.35233H50.4223L54.0239 5.7513H48.764V3.62694H56.0967Z" fill="#11273D"/>
<path d="M20.029 3.62694L16.4792 7.20207V20L20.314 16.1658L20.3399 7.20207H24.6929L28.3204 3.62694H20.029Z" fill="#11273D"/>
<path d="M3.83479 7.17617H13.344L16.9197 3.60104H3.54977L0 7.17617V16.2953L3.57568 19.8705H10.753L14.3545 16.2953H3.83479V7.17617Z" fill="#11273D"/>
<path d="M85.9977 16.2953L89.8325 19.8705V7.17617H85.9977V16.2953Z" fill="#11273D"/>
<path d="M100.896 7.04663L99.1085 5.41451L97.1911 3.67876H89.8584H86.0236L89.8325 7.12435L89.8584 7.15026H97.1652V7.17617L97.1911 16.2694H97.1652L101 19.8446V7.04663H100.896Z" fill="#11273D"/>
<path d="M63.0149 16.2694V7.25389H65.8391L69.6739 3.70466H69.5703H65.7355H63.0149V0L59.1801 3.57513V16.2953L63.0149 19.8705V19.8446H69.648L65.8132 16.2694H63.0149Z" fill="#11273D"/>
<path d="M83.6139 7.25389L82.3443 6.06218L79.805 3.70466H73.1978L70.6326 6.08808L69.3371 7.27979V16.2953L70.6585 17.487L73.2237 19.8705H79.805L80.8674 18.886L82.3702 17.487L83.6398 16.2953V7.27979L83.6139 7.25389ZM79.805 16.2953L73.1719 16.2435V7.27979H75.4779H79.805V16.2953Z" fill="#11273D"/>
</g>
<defs>
<clipPath id="clip0_10_62">
<rect width="101" height="20" fill="white"/>
</clipPath>
</defs>
</svg>
