<svg width="50" height="51" viewBox="0 0 50 51" fill="none" xmlns="http://www.w3.org/2000/svg">
<circle cx="25" cy="25.5" r="21.5" fill="#BFD2E6" stroke="#EEF6FF" stroke-width="7"/>
<path d="M27.0508 32.7188C27.1633 32.5081 27.4261 32.4253 27.6387 32.542C28.2107 32.8569 28.582 33.3082 28.582 33.834C28.5819 34.4329 28.1147 34.9207 27.4043 35.2432C26.7482 35.5408 25.8941 35.7002 25 35.7002C24.1059 35.7002 23.2517 35.5408 22.5957 35.2432C21.8854 34.9207 21.4181 34.4329 21.418 33.834C21.418 33.3092 21.788 32.8582 22.3584 32.543L22.4404 32.5088C22.6345 32.4489 22.8485 32.5346 22.9473 32.7197C23.0591 32.9297 22.9835 33.1931 22.7744 33.3096L22.7734 33.3105C22.5961 33.4085 22.4696 33.5092 22.3896 33.6035C22.3098 33.6976 22.2842 33.7754 22.2842 33.834C22.2843 33.902 22.3215 33.999 22.4395 34.1162C22.5561 34.232 22.7361 34.3517 22.9785 34.459C23.4626 34.6732 24.1633 34.8261 25 34.8262C25.8366 34.8262 26.5374 34.6732 27.0215 34.459C27.2641 34.3516 27.4449 34.2321 27.5615 34.1162C27.6795 33.999 27.7157 33.9019 27.7158 33.834C27.7158 33.7753 27.6905 33.6968 27.6104 33.6025C27.5501 33.5317 27.4632 33.4579 27.3486 33.3838L27.2246 33.3096C27.0151 33.1938 26.9385 32.9292 27.0508 32.7188ZM25 16.2998C28.4221 16.2999 31.2002 19.1325 31.2002 22.6064C31.2001 22.9357 31.057 23.4353 30.8311 24.0361C30.6014 24.6467 30.2745 25.3907 29.8828 26.2207C29.0993 27.8812 28.0517 29.9008 26.9932 31.916C26.8037 32.2767 26.6343 32.5985 26.4902 32.875L26.1377 33.5605C25.9174 34.0023 25.4904 34.2705 25 34.2705C24.5094 34.2704 24.0827 34.0025 23.8623 33.5605C23.6561 33.1476 23.3062 32.4893 22.8994 31.7227C21.8684 29.7801 20.8474 27.8297 20.084 26.21C19.7023 25.4002 19.3831 24.6697 19.1592 24.0615C18.9382 23.4612 18.7998 22.9553 18.7998 22.6064C18.7998 19.1325 21.5778 16.2998 25 16.2998ZM25 17.1748C22.0623 17.1749 19.666 19.6087 19.666 22.6064C19.6661 22.7303 19.6997 22.919 19.7725 23.1709C19.8443 23.4195 19.9498 23.7164 20.082 24.0508C20.3465 24.7193 20.7151 25.5278 21.1289 26.3838C21.9563 28.0952 22.9594 29.9856 23.6621 31.3096C24.0692 32.0765 24.423 32.7428 24.6348 33.167C24.7093 33.3163 24.8393 33.3964 25 33.3965C25.1608 33.3965 25.2906 33.3164 25.3652 33.167C25.548 32.8014 25.8496 32.2284 26.2285 31.5068C26.9502 30.1325 27.9808 28.17 28.8311 26.4102C29.2562 25.5301 29.6353 24.7036 29.9072 24.0283C30.0432 23.6905 30.1507 23.3929 30.2246 23.1475C30.2999 22.8972 30.335 22.717 30.335 22.6064C30.3349 19.6078 27.9378 17.1748 25 17.1748ZM25 18.5801C27.1869 18.5801 28.9599 20.3896 28.96 22.6064C28.96 24.8233 27.1869 26.6328 25 26.6328C22.8132 26.6327 21.04 24.8233 21.04 22.6064C21.0401 20.3896 22.8132 18.5802 25 18.5801ZM25 19.4541C23.2976 19.4542 21.9063 20.865 21.9062 22.6064C21.9062 24.3479 23.2976 25.7587 25 25.7588C26.7025 25.7588 28.0947 24.3476 28.0947 22.6064C28.0947 20.8653 26.7025 19.4541 25 19.4541Z" fill="#316FAF" stroke="#316FAF" stroke-width="0.4"/>
</svg>
